<?xml version="1.0" encoding="UTF-8"?>
<svg width="1024" height="1024" viewBox="0 0 1024 1024" fill="none" xmlns="http://www.w3.org/2000/svg">
  <rect width="1024" height="1024" fill="#6200EE"/>
  <circle cx="512" cy="512" r="380" fill="#FFFFFF" opacity="0.1"/>
  <circle cx="512" cy="512" r="320" fill="#FFFFFF" opacity="0.15"/>
  <path d="M512 232C359.6 232 236 355.6 236 508C236 660.4 359.6 784 512 784C664.4 784 788 660.4 788 508C788 355.6 664.4 232 512 232ZM512 704C403.6 704 316 616.4 316 508C316 399.6 403.6 312 512 312C620.4 312 708 399.6 708 508C708 616.4 620.4 704 512 704Z" fill="white"/>
  <path d="M512 352C426.4 352 356 422.4 356 508C356 593.6 426.4 664 512 664C597.6 664 668 593.6 668 508C668 422.4 597.6 352 512 352ZM512 584C470.4 584 436 549.6 436 508C436 466.4 470.4 432 512 432C553.6 432 588 466.4 588 508C588 549.6 553.6 584 512 584Z" fill="white"/>
  <path d="M512 432C470.4 432 436 466.4 436 508C436 549.6 470.4 584 512 584V432Z" fill="#BA86FC"/>
  <path d="M512 312C403.6 312 316 399.6 316 508H356C356 422.4 426.4 352 512 352V312Z" fill="#03DAC6"/>
</svg>