<?xml version="1.0" encoding="UTF-8"?>
<svg width="1242" height="2436" viewBox="0 0 1242 2436" fill="none" xmlns="http://www.w3.org/2000/svg">
  <!-- Background -->
  <rect width="1242" height="2436" fill="#6200EE"/>
  
  <!-- Decorative circles -->
  <circle cx="621" cy="1218" r="600" fill="white" opacity="0.03"/>
  <circle cx="621" cy="1218" r="500" fill="white" opacity="0.05"/>
  <circle cx="621" cy="1218" r="400" fill="white" opacity="0.07"/>
  
  <!-- Logo -->
  <g transform="translate(371, 968)">
    <!-- Outer circle -->
    <path d="M250 100C166.4 100 100 166.4 100 250C100 333.6 166.4 400 250 400C333.6 400 400 333.6 400 250C400 166.4 333.6 100 250 100ZM250 350C194 350 150 306 150 250C150 194 194 150 250 150C306 150 350 194 350 250C350 306 306 350 250 350Z" fill="white"/>
    
    <!-- Inner circle -->
    <path d="M250 175C207.2 175 175 207.2 175 250C175 292.8 207.2 325 250 325C292.8 325 325 292.8 325 250C325 207.2 292.8 175 250 175ZM250 300C221.2 300 200 278.8 200 250C200 221.2 221.2 200 250 200C278.8 200 300 221.2 300 250C300 278.8 278.8 300 250 300Z" fill="white"/>
    
    <!-- Accent details -->
    <path d="M250 200C221.2 200 200 221.2 200 250C200 278.8 221.2 300 250 300V200Z" fill="#BA86FC"/>
    <path d="M250 150C194 150 150 194 150 250H175C175 207.2 207.2 175 250 175V150Z" fill="#03DAC6"/>
  </g>
  
  <!-- App name -->
  <text x="621" y="1500" font-family="Arial, sans-serif" font-size="72" font-weight="bold" fill="white" text-anchor="middle">EvokeEssence Crypto</text>
  
  <!-- Tagline -->
  <text x="621" y="1580" font-family="Arial, sans-serif" font-size="36" fill="white" opacity="0.8" text-anchor="middle">Secure, Fast, Reliable</text>
</svg>