<?xml version="1.0" encoding="UTF-8" standalone="no"?>
<svg width="200" height="200" viewBox="0 0 200 200" fill="none" xmlns="http://www.w3.org/2000/svg">
  <circle cx="100" cy="100" r="95" fill="#0066CC" />
  <circle cx="100" cy="100" r="75" fill="#FFFFFF" />
  <path d="M100 25C58.5786 25 25 58.5786 25 100C25 141.421 58.5786 175 100 175C141.421 175 175 141.421 175 100C175 58.5786 141.421 25 100 25ZM68 80H132V120H68V80Z" fill="#0066CC" fill-opacity="0.2" />
  <path d="M60 70H140V130H60V70Z" stroke="#0066CC" stroke-width="5" />
  <path d="M80 60V140" stroke="#0066CC" stroke-width="5" />
  <path d="M100 60V140" stroke="#0066CC" stroke-width="5" />
  <path d="M120 60V140" stroke="#0066CC" stroke-width="5" />
  <path d="M50 90H150" stroke="#0066CC" stroke-width="5" />
  <path d="M50 110H150" stroke="#0066CC" stroke-width="5" />
  <text x="100" y="165" font-family="Arial" font-size="20" text-anchor="middle" fill="#0066CC">EVOKEESSENCE</text>
</svg>