<?xml version="1.0" encoding="UTF-8"?>
<svg width="400" height="300" viewBox="0 0 400 300" fill="none" xmlns="http://www.w3.org/2000/svg">
  <rect width="400" height="300" fill="#6200EE" opacity="0.1"/>
  <circle cx="200" cy="120" r="80" fill="#FFFFFF" opacity="0.9"/>
  <path d="M200 60C166.863 60 140 86.8629 140 120C140 153.137 166.863 180 200 180C233.137 180 260 153.137 260 120C260 86.8629 233.137 60 200 60ZM200 160C177.909 160 160 142.091 160 120C160 97.9086 177.909 80 200 80C222.091 80 240 97.9086 240 120C240 142.091 222.091 160 200 160Z" fill="#6200EE"/>
  <path d="M200 90C183.431 90 170 103.431 170 120C170 136.569 183.431 150 200 150C216.569 150 230 136.569 230 120C230 103.431 216.569 90 200 90ZM200 140C188.954 140 180 131.046 180 120C180 108.954 188.954 100 200 100C211.046 100 220 108.954 220 120C220 131.046 211.046 140 200 140Z" fill="#FFFFFF"/>
  <path d="M190 220H210V230H190V220Z" fill="#FFFFFF"/>
  <path d="M175 200H225V210H175V200Z" fill="#FFFFFF"/>
  <path d="M160 180H240V190H160V180Z" fill="#FFFFFF"/>
  <path d="M200 140C211.046 140 220 131.046 220 120C220 108.954 211.046 100 200 100V140Z" fill="#6200EE"/>
</svg>